<mxfile host="app.diagrams.net" modified="2024-05-14T00:56:09.914Z" agent="Mozilla/5.0 (Windows NT 10.0; Win64; x64) AppleWebKit/537.36 (KHTML, like Gecko) Chrome/124.0.0.0 Safari/537.36" version="24.4.0" etag="LTFxdhC_SGfnwH5B2MvE" type="github">
  <diagram name="Page-1" id="jOHnb0ABjQZHdwssc7QU">
    <mxGraphModel>
      <root>
        <mxCell id="0" />
        <mxCell id="1" parent="0" />
      </root>
    </mxGraphModel>
  </diagram>
</mxfile>
